<?xml version="1.0" encoding="UTF-8"?>
<svg viewBox="0 0 30 30" xmlns="http://www.w3.org/2000/svg">
 <rect x="16" y="12.5" width="6" height="0" fill="#427bc3"/>
 <path d="m15.005 0.9691c-0.41169-0.00959-0.79118 0.22172-0.97131 0.59203l-3.9616 8.0459-8.8335 1.2982c-0.3967 0.05604-0.72721 0.33236-0.85267 0.71285-0.12545 0.38049-0.024092 0.7992 0.26149 1.0802l6.4307 6.247-1.5284 8.828c-0.070625 0.40075 0.096014 0.80634 0.42798 1.0417 0.33198 0.23535 0.76985 0.25831 1.1246 0.058992l7.9311-4.1544 7.9025 4.1354c0.35303 0.18382 0.77954 0.15284 1.1023-0.08005 0.32278-0.23289 0.48663-0.62788 0.42349-1.0209l-1.5221-8.7935 6.4209-6.2874c0.30319-0.27992 0.41491-0.71114 0.28577-1.1031-0.12912-0.39192-0.47529-0.67228-0.88548-0.71716l-8.8565-1.2486-3.9552-8.0364c-0.17397-0.36402-0.54067-0.59662-0.94412-0.59886z" fill="#f57900"/>
 <path d="m14.977 2.7881l-3.8899 7.959c-0.03567 0.076075-0.097629 0.13669-0.17446 0.17068-0.020893 0.010414-0.042789 0.018706-0.065347 0.024749l-8.7028 1.2487 6.3159 6.1411c0.084394 0.084799 0.11937 0.20696 0.092656 0.32357l-1.4814 8.6757 7.8004-4.1049c0.098848-0.049671 0.21541-0.049444 0.31406 6.1e-4l7.7813 4.0917-1.5005-8.6971c-0.019691-0.11072 0.015263-0.22413 0.093876-0.30455l6.3149-6.1725-8.7011-1.2327c-0.11272-0.014599-0.21124-0.083267-0.26395-0.18397l-3.9336-7.94z" fill="#fff"/>
</svg>
